<svg xmlns="http://www.w3.org/2000/svg" viewBox="0 0 182.22 105"><defs><style>.cls-1{fill:#ea6177;}</style></defs><g id="Layer_2" data-name="Layer 2"><g id="七秀"><path class="cls-1" d="M126.66,91.27c-1.61-3.39-2.92-6.69-4.67-9.74a36.45,36.45,0,0,0-10-11.36,32.33,32.33,0,0,0-14.67-5.73,37.76,37.76,0,0,0-15.78.88C75.29,67.08,69.76,70,65.53,75c-1.66,2-3.22,4.07-4.76,6.15a31.22,31.22,0,0,0-4.08,8.61c-.18.52-.38,1-.62,1.66L49,89.67l-35.86-9c-.39-.09-.77-.19-1.16-.3-2-.53-2.25-1.11-1.74-3.13a27,27,0,0,1,6.83-11.77c1.3-1.41,2.8-2.63,4.13-4a3.23,3.23,0,0,0,.67-1.57c.64-3.4,1.08-6.86,2.67-10a41.83,41.83,0,0,1,2.8-5c2.34-3.38,6.15-4.26,9.79-5.25a44,44,0,0,1,5.66-.75,3.58,3.58,0,0,0,2.92-2.18,38.73,38.73,0,0,1,5.74-9.21,19.43,19.43,0,0,1,13.44-6.93,29.72,29.72,0,0,1,8.32.46,3.14,3.14,0,0,0,1.9-.71c3.13-2.06,6.09-4.42,9.36-6.21,4.64-2.53,9.55-2.8,14.23,0,3,1.8,5.81,3.79,8.63,5.82a3.92,3.92,0,0,0,3,.84,30.3,30.3,0,0,1,12.1.71,16,16,0,0,1,6.23,3.9,30.44,30.44,0,0,1,7.56,10.82A4.11,4.11,0,0,0,140.29,39a24,24,0,0,1,11.27,3.54,11.3,11.3,0,0,1,3.79,4.35,38.2,38.2,0,0,1,4.36,14,2.22,2.22,0,0,0,1,1.63A28.83,28.83,0,0,1,168.83,72a39.56,39.56,0,0,1,2.18,7c.26.94-.66,1-1.22,1.11-3.46.92-6.93,1.79-10.39,2.69L128.13,91C127.55,91.11,127,91.2,126.66,91.27Zm-54.47-32c-1.11.44-2,.85-2.87,1.11-1.7.48-3.48.64-4.92-.53A4.32,4.32,0,0,1,63,55.51c.34-1.84,1.86-2.86,3.3-3.52a5.17,5.17,0,0,1,4.28.36,20.47,20.47,0,0,0,5,2,17.58,17.58,0,0,1,7.32,3.28A17.63,17.63,0,0,0,95,60.54a15.82,15.82,0,0,0,9.88-4.28c1.07-1,1.89-2.45,3.74-2,.09,0,.21-.09.32-.14A20.44,20.44,0,0,1,117.08,52c1.85,0,3.16.41,3.79,1.84.3.7.65,1.37,1,2.05.68,1.37.23,2.33-1.31,2.49a32.53,32.53,0,0,1-3.7.11c-.88,0-1.77-.07-2.65-.12l-.17.45c2.35,1.47,4.62,3.09,7.06,4.37a7,7,0,0,0,6.14-.17c.93-.38,1.22-1.25.58-1.64-.87-.52-.91-1.27-1.08-2.08A14.77,14.77,0,0,0,123,52.79c-1.74-2-3.54-4.06-6.55-4.11-.19,0-.37-.25-.76-.54.68-.63,1.24-1.22,1.88-1.71s1.45-.82,2.08-1.36c1.3-1.1,1.28-2.47.16-3.75s-2.64-1.34-4.17-1.18c-2,.21-4,.46-6,.68a2,2,0,0,1-.58-.11c1.75-2.32,1.85-2.87.83-3.89-.32,2.88-3,3.38-4.9,5.06-.1-1.25-.16-2.23-.26-3.21a30.62,30.62,0,0,0-.65-5.7c-1-3.41-3.8-5.2-6.87-6.52a2.71,2.71,0,0,0-2.08.29c-1.35.81-1.41,3.05-.17,3.59.33.15.8,0,1.21,0a5.39,5.39,0,0,0-.2-1.17,3.49,3.49,0,0,0-.67-.83c1.18-.28,2.49.67,2.15,1.52-.87,2.22-2.07,4.28-4.32,5.37a2.2,2.2,0,0,1-1.92-.36,15.37,15.37,0,0,1-2.59-3,5,5,0,0,1-.73-2.23,1.16,1.16,0,0,1,1.77-1.16,1.8,1.8,0,0,0-.23.39c-.08.39-.13.79-.19,1.19.47,0,1.08.14,1.39-.09a1.83,1.83,0,0,0-.45-3.24,3.78,3.78,0,0,0-2.63,0,20.49,20.49,0,0,0-3.72,2.74,6.78,6.78,0,0,0-2.46,6.73c.27,1.51.4,3.05.63,4.8-2.5-.76-5.29-.38-6.12-3.61-1,1.65.06,2.9,2.77,3.53a5.51,5.51,0,0,1-1.92.93c-2.9.5-5.72.44-8.3-1.28a1.93,1.93,0,0,0-1.63-.24c-2,1.13-2.47,3.79-.87,5.13,1.26,1.05,2.58,2,3.88,3,.51.39,1,.77.66,1.53h-.74c-.16,0-.32-.05-.48-.07-2.25-.31-4.27.06-5.74,2a36.35,36.35,0,0,0-2.73,3.64c-1.13,2-2.09,4-3,6.08a1.19,1.19,0,0,0,.62,1.77C63.41,65.73,69.34,63.49,72.19,59.27ZM55.31,46.89c-1.18-1.06-2.2-2-3.32-2.9a1.36,1.36,0,0,0-1.28.17,24.17,24.17,0,0,0-2.16,2.36c-.4.47-.28.85.26,1.16.85.49,1.67,1.06,2.55,1.52a1,1,0,0,0,.91,0C53.22,48.54,54.11,47.81,55.31,46.89ZM48.79,64.1l-.21.24c-.16,0-.36,0-.47,0-1,.73-2.06,1.47-3,2.27-.08.07,0,.6.21.75a25.6,25.6,0,0,0,2.51,2,1.09,1.09,0,0,0,1,0c1-.63,1.88-1.34,2.78-2.06.18-.14.36-.63.3-.68C50.87,65.84,49.83,65,48.79,64.1Zm82.65-14.7c.41-.17.66-.18.76-.32.81-1,1.6-2.06,2.34-3.13.07-.11-.19-.57-.4-.71a9.78,9.78,0,0,0-1.88-1,1.43,1.43,0,0,0-1.19.08,23.14,23.14,0,0,0-2.28,2.57.9.9,0,0,0,.1.88C129.74,48.37,130.65,48.9,131.44,49.4Zm6.67,17a23.75,23.75,0,0,0-2.47-1.61,1.75,1.75,0,0,0-1.42,0,8.64,8.64,0,0,0-1.91,1.61,1.09,1.09,0,0,0,0,1.08,9.84,9.84,0,0,0,2,1.65,1.35,1.35,0,0,0,1.24,0C136.46,68.32,137.18,67.41,138.11,66.38ZM148.3,64.3a3.15,3.15,0,0,0,3.22-.92c.31-.37.61-1.07.45-1.42a1.77,1.77,0,0,0-1.34-.72C148.88,61.08,148.13,62.1,148.3,64.3ZM35.15,63c-.45-.93-.92-1.72-2-1.83a2.44,2.44,0,0,0-2.31,1.08C32.13,64.23,33.23,64.5,35.15,63Z"/><path class="cls-1" d="M91.53,105c-3.68,0-7.36,0-11,0-.86,0-1.27-.38-1.12-1.11.32-1.62.75-3.23,1.2-4.82.33-1.16,1.37-1.54,2.34-2a2.33,2.33,0,0,0,1.14-1.31c1-3.72,3.6-6.25,7.38-6.72a6.43,6.43,0,0,1,3.39,1c2.38,1.22,4.23,2.94,4.7,5.8.07.44.72.9,1.21,1.15,2.17,1.09,4,5.24,3.23,7.49-.1.28-.75.5-1.14.5-3.76,0-7.52,0-11.29,0Z"/><path class="cls-1" d="M94.71,71c-.48,3-1,6.61-1.62,10.19-.25,1.57-.51,3.14-.8,4.7-.06.28-.34.52-.52.78-.23-.28-.6-.53-.67-.85-.38-1.67-.73-3.35-1-5-.47-3-.8-6-1.32-9a7.36,7.36,0,0,1,.9-4.94,2,2,0,0,1,2.87-.74C94.13,67.17,94.61,68.72,94.71,71Z"/><path class="cls-1" d="M5.12,66.06c2.19-.46,5,2.32,4.92,4.94a5,5,0,0,1-5,4.9A5.07,5.07,0,0,1,0,71.06C0,68.84,2.22,65.68,5.12,66.06Z"/><path class="cls-1" d="M163.82,39.44c-.22,3-1.61,5-5,5.14a4.93,4.93,0,0,1-5-4.93c.17-3.13,1.67-4.95,5.1-4.92A4.84,4.84,0,0,1,163.82,39.44Z"/><path class="cls-1" d="M135.74,16.25a4.93,4.93,0,0,1-4.68,5.13,5.31,5.31,0,0,1-5.23-5,5.12,5.12,0,0,1,4.79-4.89C133.64,11.46,135.73,13.42,135.74,16.25Z"/><path class="cls-1" d="M81.58,90.89c-1.44-.82-2.9-1.62-4.32-2.47-3.06-1.81-6.15-3.56-9.11-5.51a5.21,5.21,0,0,1-2-2.65,2.42,2.42,0,0,1,3.17-3.11,7.23,7.23,0,0,1,3.28,1.78c3,3.4,5.74,7,8.56,10.47a8.7,8.7,0,0,1,.7,1.23Z"/><path class="cls-1" d="M177.45,76.36c-2.4,0-5-2.3-5.11-4.5a4.86,4.86,0,0,1,4.56-5.35,5.08,5.08,0,0,1,5.32,4.54C182.18,74.49,180.2,76.09,177.45,76.36Z"/><path class="cls-1" d="M92.12,0a5.1,5.1,0,0,1,4.94,4.73,5,5,0,0,1-4.92,5.1A5.18,5.18,0,0,1,87.22,5,5.14,5.14,0,0,1,92.12,0Z"/><path class="cls-1" d="M58.86,16.63c-.11,3.24-1.71,4.75-4.78,4.88a4.49,4.49,0,0,1-4.69-4.76,4.74,4.74,0,1,1,9.47-.12Z"/><path class="cls-1" d="M23.57,34.83a4.81,4.81,0,0,1,4.78,4.79,4.73,4.73,0,0,1-4.91,4.78,4.57,4.57,0,0,1-4.67-5A4.72,4.72,0,0,1,23.57,34.83Z"/><path class="cls-1" d="M100.88,90.69c2-2.45,3.82-5,5.91-7.32,1.68-1.86,3.63-3.49,5.48-5.2a2.61,2.61,0,0,1,3.84,0,2.52,2.52,0,0,1-.15,3.55,8,8,0,0,1-1.79,1.59c-4.28,2.62-8.59,5.19-12.89,7.77Z"/><path class="cls-1" d="M77.13,94.72c-1.82-.34-3.66-.67-5.48-1-3-.62-6-1.18-9-2a9.45,9.45,0,0,1-3-1.81c-.95-.73-.59-1.73-.24-2.64a1.72,1.72,0,0,1,2-1.22,9.69,9.69,0,0,1,3.19.83c3.74,2.13,7.4,4.4,11.08,6.62.51.3,1,.64,1.5,1Z"/><path class="cls-1" d="M104.71,95,109,92.47c3-1.8,6-3.64,9-5.37a6.93,6.93,0,0,1,2.67-.82,2.09,2.09,0,0,1,2.09,1.5,2,2,0,0,1-.53,2.5,7.42,7.42,0,0,1-2.59,1.33c-4.76,1.21-9.55,2.32-14.33,3.46A3.81,3.81,0,0,1,104.71,95Z"/><path class="cls-1" d="M86,87.47c-.38-.34-.78-.65-1.12-1-3.5-3.84-7-7.67-10.46-11.54A3.45,3.45,0,0,1,73.37,73c0-.77.49-2.07,1-2.18a3.41,3.41,0,0,1,2.68.71,14.21,14.21,0,0,1,2.42,3.39c2.11,3.7,4.16,7.44,6.22,11.17a11.58,11.58,0,0,1,.53,1.26Z"/><path class="cls-1" d="M97.13,87c.52-1,1-2.11,1.57-3.13,1.78-3.25,3.56-6.5,5.4-9.72A19.13,19.13,0,0,1,106,71.39a2.2,2.2,0,0,1,3-.44,2.08,2.08,0,0,1,.18,3c-2.5,3.07-5.06,6.08-7.62,9.09-1.27,1.48-2.6,2.9-3.9,4.35Z"/><path class="cls-1" d="M96,79.82c.86-2.62,1.71-5.24,2.58-7.86a1.66,1.66,0,0,1,.52-.79,7.75,7.75,0,0,1,1.29-.64c.21.47.69,1,.59,1.4a13,13,0,0,1-1.32,3.3c-1,1.64-2.11,3.17-3.18,4.75Z"/><path class="cls-1" d="M86.62,79.93c-1.43-2.45-2.88-4.89-4.26-7.37-.36-.65-.43-1.52.41-1.86s1.39.27,1.78,1a23.64,23.64,0,0,1,2.49,8Z"/><path class="cls-1" d="M90.94,40.05c.83-1.73,1.56-1.8,4-.38,1-1.31,2.25-2.58,4.07-2.44a4.86,4.86,0,0,1,2.87,1.17c1.88,1.87,1.07,4.26-1.85,6.54a20.06,20.06,0,0,1,2.26,3.12,3.48,3.48,0,0,1-.62,4,3.26,3.26,0,0,1-4.06.58,8.59,8.59,0,0,1-1.94-.87,7.87,7.87,0,0,1-1.42-2.06c-.38-.66-.48-1.62-1-2-1-.75-2.19.22-2.23,1.67A3.32,3.32,0,0,1,88.3,52.8a4.35,4.35,0,0,1-4.48-1.13,4,4,0,0,1,.45-5.38c.27-.24.53-.49.72-.67a16.77,16.77,0,0,1-2.07-3.39c-1-3,1.43-5.22,4.5-4.65C89,37.86,89.5,38.3,90.94,40.05Z"/><path class="cls-1" d="M103.36,51.79c.82-1.33,1.88-2.86,2.75-4.49a11.82,11.82,0,0,0,.94-3.06,2.79,2.79,0,0,1,2-2.4,2.85,2.85,0,0,1,3.07,1.37,14,14,0,0,0,1.8,2,2.93,2.93,0,0,1,.66,3.56,5.62,5.62,0,0,1-5.06,3.07c-.8,0-1.6-.08-2.4-.09Z"/><path class="cls-1" d="M85.47,55.56c3.68,0,6-1.7,7-5.27,1.57,3.48,4.71,4.39,8,5.17-1.62,3.31-4.63,4.12-7.64,4.25A7.4,7.4,0,0,1,85.47,55.56Z"/><path class="cls-1" d="M82.3,52.07c-2.64.29-5.21.75-7.74-.37a5,5,0,0,1-3-5.73,1.74,1.74,0,0,1,.55-1c1.68-1.15,3.48-1.91,5.55-1.22a1.51,1.51,0,0,1,.78.94A18.47,18.47,0,0,0,82.3,52.07Z"/><path class="cls-1" d="M91.09,36.92c-2.26,0-4.22.47-5.79-1.18a2.08,2.08,0,0,1-.52-2.38c.36-1,1.16-1,1.92-1.13a.92.92,0,0,1,.77.17C88.63,33.79,89.74,35.22,91.09,36.92Z"/><path class="cls-1" d="M94.07,36.85a50.34,50.34,0,0,1,3.18-4.32c.4-.44,1.8-.69,2-.43a2.83,2.83,0,0,1,.59,2.29C99.12,36.58,97,37.37,94.07,36.85Z"/></g></g></svg>